<?xml version="1.0" encoding="utf-8"?><svg xmlns="http://www.w3.org/2000/svg" xmlns:xlink="http://www.w3.org/1999/xlink">
    <symbol viewBox="0 0 32 32" id="facebook" xmlns="http://www.w3.org/2000/svg">
        <path d="M24.79 10.973a1.034 1.034 0 0 0-.737-.308l-.055.001h.003-4.333V8.999c0-.927.077-1 1-1h3c.736 0 1.333-.597 1.333-1.333V1.603a1.376 1.376 0 0 0-1.248-1.27h-.005l-.19-.023A26.596 26.596 0 0 0 19.586 0h-.008c-4.88 0-7.91 3.193-7.91 8.333v2.333H8.335c-.736 0-1.333.597-1.333 1.333v5.25a1.4 1.4 0 0 0 1.4 1.397l3.267.02v12c0 .736.597 1.333 1.333 1.333h5.333c.736 0 1.333-.597 1.333-1.333v-12h3.005c.695 0 1.266-.532 1.328-1.212v-.005l1-5.7a.952.952 0 0 0-.211-.778l.001.001zM17 17.333v12h-2.667v-12A1.387 1.387 0 0 0 13.002 16H9.666v-2.667h3.333a1.387 1.387 0 0 0 1.333-1.331v-3.67c0-3.547 2-5.667 5.333-5.667.966.027 1.886.113 2.788.256l-.121-.016v2.427h-1.333c-4 0-4 2.76-4 3.667v3a1.387 1.387 0 0 0 1.331 1.333H22.206l-.443 2.667h-3.43A1.387 1.387 0 0 0 17 17.33v.003z"></path>
    </symbol>
</svg>